<svg xmlns="http://www.w3.org/2000/svg" viewBox="0 0 357.47 407.63">
  <title>cup</title>
  <g id="17eb95bb-b000-42f1-bf4b-33da213e0b8a" data-name="Objects">
    <g>
      <path d="M285.93,23.12c.12-2.09.26-4.2.26-6.15H71.27c0,2,.13,4.06.25,6.15H0S27,155.71,125.59,155.71c.5,0,1-.05,1.56-.05a110.84,110.84,0,0,0,17.75,16.16,8,8,0,0,0,.11,15.93h10.54l-24.1,101.39h-17.9v96h136v-96H231.59L207.48,187.75h10.57a8,8,0,0,0,0-16h-5.44a111.89,111.89,0,0,0,17.69-16.11c.51,0,1,.05,1.54.05,98.58,0,125.63-132.59,125.63-132.59ZM18.7,37.36H73.06c5,32,20.39,72.83,42,103.28C56.63,133.55,28.82,68.92,18.7,37.36Zm211.61,265v66.77H131.24V302.31Zm12.07-161.67c21.62-30.44,37-71.26,42-103.28h54.39C328.62,68.94,300.79,133.56,242.38,140.64Z" fill="#ffc400"/>
      <path d="M113.55,289.14v96h64.36V369.08H131.24V302.31h46.67V17H71.27c0,2,.13,4.06.25,6.15H0S27,155.71,125.59,155.71c.5,0,1-.05,1.56-.05a110.84,110.84,0,0,0,17.75,16.16,8,8,0,0,0,.11,15.93h10.54l-24.1,101.39ZM18.7,37.36H73.06c5,32,20.39,72.83,42,103.28C56.63,133.55,28.82,68.92,18.7,37.36Z" fill="#ffe400"/>
      <path d="M131.24,369.08V302.31h3.69a4.49,4.49,0,0,1,0-2c6.32-27.36,11.05-48.64,16.92-75.09,3.82-17.19,5.94-29.07,8.7-40.52-6.15.63-17,3-17.61-4.46-.63-8.48,8.49-7.17,8.91-7.21-7.21-6.58-24.6-26.09-44.41-66C99.07,90.3,86.63,46,84.41,17H71.27c0,2,.13,4.06.25,6.15H0S27,155.71,125.59,155.71c.5,0,1-.05,1.56-.05a110.84,110.84,0,0,0,17.75,16.16,8,8,0,0,0,.11,15.93h10.54l-24.1,101.39h-17.9v96h64.36V369.08ZM18.7,37.36H73.06c5,32,20.39,72.83,42,103.28C56.63,133.55,28.82,68.92,18.7,37.36Z" fill="#ffcf00"/>
      <path d="M144.23,302.31h4.87c1.54-9.17,1.62-18.48,2.58-27.74.44-4.26,1.19-8.46,2-12.65C150.06,275.25,146.65,288.65,144.23,302.31Z" fill="#ffe400"/>
      <path d="M122.89,17c-1,28.42,1.45,51.35,12.84,83.19,17.36,48.5,35.18,66.32,35.18,78,0,29.59-10,106.46-12.14,124.16h19.14V17Z" fill="#ffcf00"/>
      <rect x="89.04" y="384.14" width="179.4" height="23.49" fill="#001a36"/>
      <rect x="89.04" y="384.14" width="88.72" height="23.49" fill="#324b60"/>
      <path d="M71.52,23.12H0s8.05,40.77,33.48,78.59,55.18,47.68,60.07,49c23.1,6.36,33.6,4.92,33.6,4.92s-30.08-.74-59.7-23C45.13,115.89,28.3,88.16,17.92,62.39,9,40.3,6,27.08,6,27.08l65.76.17Z" fill="#ffe400"/>
      <path d="M285.93,23.12h71.54s-9.91,48.81-40,87.29c-26.44,33.8-51.2,40.5-66.93,43.84s-20.21,1.41-20.21,1.41a111.82,111.82,0,0,0,24.39-3.92c14.9-4.35,40.16-16.73,62.92-49.19,26-37.09,30.79-73.63,30.79-73.63L285,28.76Z" fill="#ffe400"/>
      <polygon points="229.98 302.49 125.92 300.18 131.42 368.11 131.56 368.8 229.98 302.49" fill="#ffe400"/>
      <rect x="131.24" y="302.31" width="99.07" height="66.78" fill="#f19000"/>
      <rect x="135.35" y="306.91" width="93.48" height="60.53" fill="#f7b033"/>
      <path d="M70.23,22.8S80.86,22,86.74,15.25A35.35,35.35,0,0,0,94.15,0S96,10.07,103.1,15.53c6.36,4.86,15.53,6.85,15.53,6.85s-9.93,1.54-15.53,7.14-8.53,15.94-8.53,15.94S90.79,23.08,70.23,22.8Z" fill="#fff"/>
    </g>
  </g>
</svg>
